name C:\Users\u0101727\Documents\MyRepositories\paper-ad\trackingsimulations_3d\Results\TrackSim\IK_c10.mot
datacolumns 32
datarows 14
range 3.45000000 3.65800000
endheader
time	pelvis_tilt	pelvis_list	pelvis_rotation	pelvis_tx	pelvis_ty	pelvis_tz	hip_flexion_l	hip_adduction_l	hip_rotation_l	hip_flexion_r	hip_adduction_r	hip_rotation_r	knee_angle_l	knee_angle_r	ankle_angle_l	ankle_angle_r	subtalar_angle_l	subtalar_angle_r	lumbar_extension	lumbar_bending	lumbar_rotation	arm_flex_l	arm_add_l	arm_rot_l	arm_flex_r	arm_add_r	arm_rot_r	elbow_flex_l	elbow_flex_r	pro_sup_l	pro_sup_r	
          3.45000000	         -2.16197577	          4.29766785	          4.34149648	         -0.50449739	          0.93959863	         -0.22949052	         14.60064706	          8.62398668	          3.44525787	         13.46047911	         -1.68408675	         -2.20329022	        -21.26822179	        -65.58515761	          3.98172816	        -12.66005708	          6.03731594	        -13.57025759	         -4.40563327	         -4.06249490	         -3.25125244	         -1.90672500	        -15.79531508	         17.86865003	         -4.84711770	        -16.87569717	         12.16541474	         21.19774898	         23.51530370	         86.51662706	         86.51662706	
          3.46600000	         -2.18467307	          4.29672346	          4.44494858	         -0.48698844	          0.94372555	         -0.23072456	         13.82757692	          8.93707821	          3.41327839	         16.66162445	         -2.01946666	         -2.08436821	        -22.59608173	        -66.67970941	          5.73991740	        -11.11237055	          6.19482301	        -12.87532173	         -4.70558723	         -4.06709623	         -3.89622349	         -1.59722653	        -15.90897529	         17.29158600	         -4.98809414	        -16.82511877	         12.39174511	         22.55213613	         23.07056761	         86.51662706	         86.51662706	
          3.48200000	         -2.16431381	          3.94010960	          4.36415768	         -0.46883456	          0.94670131	         -0.23131928	         12.33660859	          8.61296262	          3.98564408	         19.60339296	         -1.91741776	         -1.95490274	        -22.35242532	        -66.92690955	          7.33784700	         -8.74403379	          5.99732327	        -11.85510064	         -4.89935074	         -3.70437309	         -4.33118519	         -1.40603035	        -16.06292186	         16.78463539	         -5.26481495	        -16.79095156	         12.43132852	         23.94633358	         22.64153341	         86.51662706	         86.51662706	
          3.49800000	         -2.11596417	          3.54225396	          4.37524510	         -0.45055118	          0.94930764	         -0.23194783	         10.75777529	          8.22559863	          4.54040987	         22.24032519	         -1.80431821	         -2.00625222	        -21.94926591	        -66.20153483	          8.56481788	         -7.13757328	          5.76459947	        -10.89493896	         -5.09042814	         -3.27842937	         -4.82989441	         -1.19317217	        -16.22270131	         16.38401152	         -5.63141081	        -16.75046445	         12.19048644	         25.26179979	         22.33310178	         86.51662706	         86.51662706	
          3.51400000	         -2.03983863	          3.13137093	          4.45987322	         -0.43210823	          0.95143827	         -0.23259470	          9.10102327	          7.80614461	          5.09164900	         24.52079303	         -1.71232322	         -2.22047165	        -21.39959316	        -64.54974931	          9.40060316	         -5.55272184	          5.46217419	        -10.24281534	         -5.28310028	         -2.82228009	         -5.36870733	         -0.96263321	        -16.39543774	         16.08084141	         -6.06565875	        -16.70185568	         11.69688031	         26.50851041	         22.11800865	         86.51662706	         86.51662706	
          3.53000000	         -1.94264284	          2.71648338	          4.58213027	         -0.41348744	          0.95300391	         -0.23317721	          7.37967630	          7.33911722	          5.57581607	         26.43215653	         -1.62902725	         -2.53453320	        -20.72969261	        -62.01770050	          9.96661511	         -3.84928306	          5.19964934	         -9.95363176	         -5.47300075	         -2.35480352	         -5.91129626	         -0.72650927	        -16.58898222	         15.84966507	         -6.52562571	        -16.63899760	         11.04419734	         27.70149077	         21.93091917	         86.51662706	         86.51662706	
          3.54600000	         -1.82880941	          2.32630318	          4.71540098	         -0.39466180	          0.95395046	         -0.23364538	          5.59736508	          6.83798878	          5.93561326	         27.96460626	         -1.56762504	         -2.90134236	        -19.96434993	        -58.68430341	         10.40391280	         -2.14206046	          5.07858386	        -10.07188429	         -5.65936576	         -1.91432043	         -6.43484347	         -0.49410674	        -16.80544532	         15.67151502	         -6.97542354	        -16.55588868	         10.33113174	         28.83439751	         21.71572616	         86.51662706	         86.51662706	
          3.56200000	         -1.70008677	          1.99491912	          4.85529087	         -0.37561495	          0.95426842	         -0.23401172	          3.75573130	          6.34239362	          6.17849355	         29.11932976	         -1.56485687	         -3.30373222	        -19.12731710	        -54.65904988	         10.79318188	         -0.98474367	          5.12157428	        -10.37468124	         -5.84700110	         -1.53896102	         -6.93949607	         -0.26651372	        -17.03825407	         15.54073992	         -7.38905754	        -16.45002763	          9.63371745	         29.87963329	         21.43914176	         86.51662706	         86.51662706	
          3.57800000	         -1.56092520	          1.74209791	          5.00661106	         -0.35634606	          0.95397893	         -0.23431105	          1.86782566	          5.88631721	          6.34256244	         29.91473479	         -1.64696453	         -3.74709204	        -18.24767508	        -50.05377695	         11.15769810	         -0.71360927	          5.29870012	        -10.41166967	         -6.03741446	         -1.24809235	         -7.42815702	         -0.03691646	        -17.27317966	         15.46171868	         -7.75059892	        -16.32344145	          9.00607198	         30.80066988	         21.08399531	         86.51662706	         86.51662706	
          3.59400000	         -1.42128826	          1.57987495	          5.16525735	         -0.33686227	          0.95311404	         -0.23455625	         -0.04007472	          5.50014423	          6.49112977	         30.39189890	         -1.81563456	         -4.24669959	        -17.36176104	        -44.99457877	         11.48547799	         -1.13383396	          5.53483445	        -10.08683141	         -6.22467284	         -1.05412962	         -7.88803199	          0.20629129	        -17.49360820	         15.44161847	         -8.05177549	        -16.17932519	          8.48909965	         31.55899521	         20.64004259	         86.51662706	         86.51662706	
          3.61000000	         -1.29209609	          1.50275265	          5.32636719	         -0.31716644	          0.95171802	         -0.23474196	         -1.93295170	          5.19297362	          6.69060935	         30.60335327	         -2.04492914	         -4.81354028	        -16.51623869	        -39.60977227	         11.76153962	         -1.55939718	          5.75526507	         -9.30598727	         -6.39831305	         -0.95110337	         -8.29866647	          0.47532673	        -17.68210316	         15.48955818	         -8.29084482	        -16.02241896	          8.11282596	         32.12162485	         20.09822355	         86.51662706	         86.51662706	
          3.62600000	         -1.18032946	          1.49494811	          5.50319945	         -0.29724779	          0.94986312	         -0.23487808	         -3.77600534	          4.95537000	          6.98524019	         30.58993635	         -2.31617648	         -5.49835218	        -15.76157360	        -33.98899147	         11.97072769	         -1.36506770	          5.91164447	         -8.02466424	         -6.54861545	         -0.92054698	         -8.65485468	          0.77946802	        -17.82360912	         15.61681174	         -8.47231578	        -15.85688430	          7.90009455	         32.46234693	         19.45133435	         86.51662706	         86.51662706	
          3.64200000	         -1.08878868	          1.53826865	          5.70594220	         -0.27708238	          0.94764437	         -0.23496321	         -5.54166823	          4.76628659	          7.35673771	         30.40303727	         -2.61868344	         -6.35914657	        -15.13996835	        -28.27820301	         12.10182576	         -0.76323975	          6.00739063	         -6.18220615	         -6.66807611	         -0.94124590	         -8.95755839	          1.11691255	        -17.90954502	         15.83279669	         -8.60097677	        -15.68553279	          7.86598585	         32.56686393	         18.69942908	         86.51662706	         86.51662706	
          3.65800000	         -1.01065731	          1.61073394	          5.92346302	         -0.25661485	          0.94515935	         -0.23494602	         -7.21822414	          4.59238984	          7.72419411	         30.10612490	         -2.91610203	         -7.41262342	        -14.68438983	        -22.77303689	         12.15625441	         -0.12699079	          6.10320808	         -3.95437850	         -6.75603978	         -0.99036228	         -9.19816556	          1.47018738	        -17.93976857	         16.13748150	         -8.68260073	        -15.50997978	          8.01585631	         32.43919967	         17.85285688	         86.51662706	         86.51662706	
